<?xml version="1.0" encoding="utf-8"?>
<!-- Generator: Adobe Illustrator 19.1.0, SVG Export Plug-In . SVG Version: 6.00 Build 0)  -->
<svg version="1.1" xmlns="http://www.w3.org/2000/svg" xmlns:xlink="http://www.w3.org/1999/xlink" x="0px" y="0px"
  viewBox="0 0 48 60" style="enable-background:new 0 0 48 60;" xml:space="preserve" width ="48px" height ="60px" >
  <style type="text/css">
    .st0{display:none;}
    .st1{display:inline;fill:url(#SVGID_1_);}
    .st2{fill:#FFFFFF;}
    .st3{fill:#87A8E0;}
    .st4{fill:#A1C438;}
    .st5{fill:#E2D347;}
    .st6{fill:#F5AD4A;}
    .st7{fill:#E25653;}
  </style>
  <g>
    <path class="st4" d="M11,27.5c-1.3-2.3-2-4.9-2-7.5c0-8.3,6.7-15,15-15s15,6.7,15,15c0,2.6-0.7,5.2-2,7.5L24,50L11,27.5z M24,13
      c-3.9,0-7,3.1-7,7s3.1,7,7,7s7-3.1,7-7S27.9,13,24,13z" fill="#A1C438"/>
      <path class="st2" d="M24,6c7.7,0,14,6.3,14,14c0,2.4-0.7,4.9-1.9,7L24,48L11.9,27c-1.2-2.1-1.9-4.6-1.9-7C10,12.3,16.3,6,24,6
        M24,28c4.4,0,8-3.6,8-8s-3.6-8-8-8s-8,3.6-8,8S19.6,28,24,28 M24,4C15.2,4,8,11.2,8,20c0,2.9,0.8,5.6,2.2,8L24,52l13.8-24
        c1.4-2.4,2.2-5.1,2.2-8C40,11.2,32.8,4,24,4L24,4z M24,26c-3.3,0-6-2.7-6-6s2.7-6,6-6s6,2.7,6,6S27.3,26,24,26L24,26z"fill="#FFF"/>
    </g>
    </svg>
