<?xml version="1.0" encoding="UTF-8" standalone="no"?>
<svg width="29px" height="48px" viewBox="0 0 29 48" version="1.1" xmlns="http://www.w3.org/2000/svg" xmlns:xlink="http://www.w3.org/1999/xlink">
    <!-- Generator: Sketch 39.1 (31720) - http://www.bohemiancoding.com/sketch -->
    <title>ident-symbol</title>
    <desc>Created with Sketch.</desc>
    <defs>
        <linearGradient x1="0.000217295172%" y1="50%" x2="99.5152701%" y2="50%" id="linearGradient-1">
            <stop stop-color="#9FC53A" offset="49%"></stop>
            <stop stop-color="#8CBF38" offset="51.8%"></stop>
            <stop stop-color="#76B836" offset="56%"></stop>
            <stop stop-color="#65B334" offset="61%"></stop>
            <stop stop-color="#5AB033" offset="67.2%"></stop>
            <stop stop-color="#53AE32" offset="75.9%"></stop>
            <stop stop-color="#51AD32" offset="100%"></stop>
        </linearGradient>
    </defs>
    <g id="Welcome" stroke="none" stroke-width="1" fill="none" fill-rule="evenodd">
        <g id="Main-menu---hvit-svart" transform="translate(-28.000000, -5.000000)">
            <g id="ident-symbol" transform="translate(28.000000, 5.000000)">
                <g id="Group">
                    <path d="M14.3750834,2.62286816e-06 C14.3278741,2.62286816e-06 14.3008974,0.0395155156 14.2928043,0.0565469349 L0.00457178291,33.5117045 C-0.010939845,33.5471298 0.011315969,33.6275181 0.0976415504,33.6275181 L4.97368806,33.6275181 C5.0222462,33.6275181 5.05731597,33.6070804 5.07822295,33.5566674 L14.3784555,11.7918761 L23.6651997,33.5375922 C23.683409,33.5839177 23.7056648,33.6302431 23.7609671,33.6302431 L28.6653392,33.6302431 C28.7226648,33.6302431 28.7732462,33.5709738 28.7435718,33.5055732 L14.4546648,0.0565469349 C14.4428388,0.0224464471 14.410852,-0.000280906665 14.3750834,2.62286816e-06 L14.3750834,2.62286816e-06 Z" id="Shape" fill="#3C3C3C"></path>
                    <path d="M14.220817,47.6784364 L20.1826774,33.5082956 C20.1932702,33.4798001 20.1897623,33.4479088 20.1732356,33.4224572 C20.1597472,33.4054258 20.1435612,33.3815818 20.0963519,33.3815818 L8.18611931,33.3815818 C8.15458238,33.3817923 8.12523175,33.3978944 8.10788675,33.424501 C8.09083479,33.4499189 8.08827316,33.4825226 8.10114256,33.5103393 L14.05491,47.6736676 C14.0683984,47.7009179 14.0940263,47.7315744 14.1392123,47.7315744 C14.1864216,47.7315744 14.2113751,47.7029616 14.2214914,47.6784364 L14.220817,47.6784364 Z" id="Shape" fill="url(#linearGradient-1)"></path>
                </g>
            </g>
        </g>
    </g>
</svg>